/* XPM */
static char *_d2e661ebfdf4ea0abd3768b5844f010GqDLFT9wNBFqke2J[] = {
/* columns rows colors chars-per-pixel */
"16 16 4 1 ",
"  c None",
". c #2F2F2E",
"X c gray71",
"o c gray88",
/* pixels */
"                ",
"                ",
"                ",
"       ..  ..   ",
"  ...  .X.....  ",
" .ooo.  .Xooo.  ",
"  ..o.  .Xo.XX. ",
"   ......Xoooo. ",
"   .oooooXXXXX. ",
"   .oo.ooooo..  ",
"   .ooo.o.o..   ",
"    ..oo...oo.  ",
"      ...  ..   ",
"                ",
"                ",
"                "
};
