/* XPM */
static char *_de7334ae487494cf2c50c6228521269aZapBMN6EQrz4HLO[] = {
/* columns rows colors chars-per-pixel */
"16 16 4 1 ",
"  c None",
". c #2F2F2E",
"X c gray71",
"o c gray88",
/* pixels */
"                ",
"                ",
"                ",
"   ..  ..  ..   ",
"  .o.  .X.....  ",
"  .o.   .Xooo.  ",
"  .o.   .Xo.XX. ",
"  .o.....Xoooo. ",
"   .oooooXXXXX. ",
"   .oo.ooooo..  ",
"   .ooo.o.o..   ",
"    ..oo...oo.  ",
"      ...  ..   ",
"                ",
"                ",
"                "
};
