/* XPM */
static char *result[] = {
/* columns rows colors chars-per-pixel */
"16 16 4 1 ",
"  c #2F2F2E",
". c gray71",
"X c gray88",
"o c None",
/* pixels */
"oooooooooooooooo",
"ooooooo  oo  ooo",
" oooooo .    ooo",
"X oooooo .XXX oo",
" X ooooo .X .. o",
"o X oooo .XXXX o",
"oo       .  ..  ",
"o XXXXXXXXXX    ",
"o   XXXXXX     o",
"oooo      oooooo",
"oooooooooooooooo",
"oooooooooooooooo",
"oooooooooooooooo",
"oooooooooooooooo",
"oooooooooooooooo",
"oooooooooooooooo"
};
