/* XPM */
static char *result[] = {
/* columns rows colors chars-per-pixel */
"16 16 3 1 ",
"  c #D6F3FF",
". c #B3EFFC",
"X c white",
/* pixels */
"                ",
"                ",
"       ....     ",
"     ......     ",
"     ........   ",
"   .....  ...   ",
"  .....    ... .",
".......     ... ",
".....        .  ",
".....           ",
"                ",
"                ",
"                ",
"                ",
"                ",
"                "
};
